<svg xmlns="http://www.w3.org/2000/svg" viewBox="0 0 1584 396" width="1584" height="396"><defs><linearGradient id="bg" gradientTransform="rotate(105)"><stop offset="0%" stop-color="#0A3039"/><stop offset="35%" stop-color="#0B4B45"/><stop offset="100%" stop-color="#00897B"/></linearGradient><radialGradient id="glowT" cx="50%" cy="50%" r="50%"><stop offset="0" stop-color="#26A69A" stop-opacity="0.45"/><stop offset="1" stop-color="#26A69A" stop-opacity="0"/></radialGradient></defs><rect width="1584" height="396" fill="url(#bg)"/><circle cx="1267" cy="39" r="792" fill="url(#glowT)"/><circle cx="63" cy="388" r="633" fill="url(#glowT)"/><g transform="translate(47,47) scale(0.26842105263157895)"><g transform="translate(0,190) scale(0.1,-0.1)" fill="#FFFFFF"><path d="M895 1800 c-37 -15 -64 -55 -81 -120 -34 -137 -110 -235 -306 -398 -179 -147 -258 -288 -258 -457 0 -139 44 -241 139 -328 93 -83 208 -127 331 -127 86 0 152 23 202 70 34 33 39 43 36 77 l-3 38 -110 -3 c-133 -5 -197 15 -272 82 -70 63 -93 115 -93 212 0 155 70 248 303 406 84 56 174 124 200 150 98 98 132 229 86 326 -31 64 -113 98 -174 72z"/><path d="M1236 1485 c-17 -9 -54 -43 -84 -75 -51 -57 -144 -124 -325 -235 -92 -56 -175 -134 -202 -190 -15 -29 -20 -61 -20 -117 0 -69 3 -81 30 -120 41 -57 112 -104 183 -119 112 -23 135 -31 158 -54 33 -33 33 -99 0 -144 -46 -61 -93 -88 -287 -160 -64 -24 -101 -59 -101 -95 -1 -112 246 -115 478 -7 215 101 344 236 380 398 48 219 -64 417 -263 463 -90 21 -200 -15 -261 -85 -53 -60 -46 -72 51 -77 96 -5 145 -27 200 -87 63 -70 86 -214 52 -328 -16 -52 -89 -173 -106 -173 -5 0 4 18 20 40 39 54 66 155 57 217 -18 132 -84 191 -279 249 -68 20 -97 51 -97 102 0 76 50 121 225 202 206 96 258 124 311 173 64 58 82 102 65 159 -21 69 -113 100 -185 63z"/></g></g><text x="112.2" y="86.7" font-family="'DM Sans', -apple-system, 'Segoe UI', Roboto, sans-serif" font-weight="700" font-size="37.7" letter-spacing="-0.8" fill="#FFFFFF">EasyPay</text><rect x="1091.0" y="46" width="446" height="52" rx="26.0" fill="#FFFFFF"/><text x="1314.0" y="79.5" text-anchor="middle" font-family="'DM Sans', -apple-system, 'Segoe UI', Roboto, sans-serif" font-weight="700" font-size="22" fill="#0B3B45">Connect in 5 minutes on Telegram</text><text x="47" y="210" font-family="'DM Serif Display', Georgia, serif" font-size="79" fill="#FFFFFF">Accept payments from any country —</text><text x="47" y="298" font-family="'DM Serif Display', Georgia, serif" font-size="79" fill="#FFFFFF">without your own entity</text></svg>