<svg xmlns="http://www.w3.org/2000/svg" viewBox="0 0 1600 320" width="1600" height="320"><defs><radialGradient id="glowT" cx="50%" cy="50%" r="50%"><stop offset="0" stop-color="#00897B" stop-opacity="0.50"/><stop offset="1" stop-color="#00897B" stop-opacity="0"/></radialGradient></defs><rect width="1600" height="320" fill="#0B3B45"/><circle cx="1376" cy="-32" r="992" fill="url(#glowT)"/><g transform="translate(1321.4046315789474,-76.80000000000001) scale(2.610526315789474)"><g transform="translate(0,190) scale(0.1,-0.1)" fill="rgba(248,161,58,0.10)"><path d="M895 1800 c-37 -15 -64 -55 -81 -120 -34 -137 -110 -235 -306 -398 -179 -147 -258 -288 -258 -457 0 -139 44 -241 139 -328 93 -83 208 -127 331 -127 86 0 152 23 202 70 34 33 39 43 36 77 l-3 38 -110 -3 c-133 -5 -197 15 -272 82 -70 63 -93 115 -93 212 0 155 70 248 303 406 84 56 174 124 200 150 98 98 132 229 86 326 -31 64 -113 98 -174 72z"/><path d="M1236 1485 c-17 -9 -54 -43 -84 -75 -51 -57 -144 -124 -325 -235 -92 -56 -175 -134 -202 -190 -15 -29 -20 -61 -20 -117 0 -69 3 -81 30 -120 41 -57 112 -104 183 -119 112 -23 135 -31 158 -54 33 -33 33 -99 0 -144 -46 -61 -93 -88 -287 -160 -64 -24 -101 -59 -101 -95 -1 -112 246 -115 478 -7 215 101 344 236 380 398 48 219 -64 417 -263 463 -90 21 -200 -15 -261 -85 -53 -60 -46 -72 51 -77 96 -5 145 -27 200 -87 63 -70 86 -214 52 -328 -16 -52 -89 -173 -106 -173 -5 0 4 18 20 40 39 54 66 155 57 217 -18 132 -84 191 -279 249 -68 20 -97 51 -97 102 0 76 50 121 225 202 206 96 258 124 311 173 64 58 82 102 65 159 -21 69 -113 100 -185 63z"/></g></g><rect x="0" y="0" width="6" height="320" fill="#F8A13A"/><g transform="translate(64,139) scale(0.21578947368421053)"><g transform="translate(0,190) scale(0.1,-0.1)" fill="#F8A13A"><path d="M895 1800 c-37 -15 -64 -55 -81 -120 -34 -137 -110 -235 -306 -398 -179 -147 -258 -288 -258 -457 0 -139 44 -241 139 -328 93 -83 208 -127 331 -127 86 0 152 23 202 70 34 33 39 43 36 77 l-3 38 -110 -3 c-133 -5 -197 15 -272 82 -70 63 -93 115 -93 212 0 155 70 248 303 406 84 56 174 124 200 150 98 98 132 229 86 326 -31 64 -113 98 -174 72z"/><path d="M1236 1485 c-17 -9 -54 -43 -84 -75 -51 -57 -144 -124 -325 -235 -92 -56 -175 -134 -202 -190 -15 -29 -20 -61 -20 -117 0 -69 3 -81 30 -120 41 -57 112 -104 183 -119 112 -23 135 -31 158 -54 33 -33 33 -99 0 -144 -46 -61 -93 -88 -287 -160 -64 -24 -101 -59 -101 -95 -1 -112 246 -115 478 -7 215 101 344 236 380 398 48 219 -64 417 -263 463 -90 21 -200 -15 -261 -85 -53 -60 -46 -72 51 -77 96 -5 145 -27 200 -87 63 -70 86 -214 52 -328 -16 -52 -89 -173 -106 -173 -5 0 4 18 20 40 39 54 66 155 57 217 -18 132 -84 191 -279 249 -68 20 -97 51 -97 102 0 76 50 121 225 202 206 96 258 124 311 173 64 58 82 102 65 159 -21 69 -113 100 -185 63z"/></g></g><text x="116.4" y="170.9" font-family="'DM Sans', -apple-system, 'Segoe UI', Roboto, sans-serif" font-weight="700" font-size="30.3" letter-spacing="-0.6" fill="#FFFFFF">EasyPay</text><text x="800.0" y="173" text-anchor="middle" font-family="'DM Serif Display', Georgia, serif" font-size="38" fill="#FFFFFF"><tspan fill="#FFFFFF">Платежи </tspan><tspan fill="#FFFFFF">из </tspan><tspan fill="#FFFFFF">любой </tspan><tspan fill="#FFFFFF">страны </tspan><tspan fill="#FFFFFF">— </tspan><tspan fill="#F8A13A">без </tspan><tspan fill="#F8A13A">своего </tspan><tspan fill="#F8A13A">юрлица</tspan></text><text x="1536" y="159" text-anchor="end" font-family="'DM Sans', -apple-system, 'Segoe UI', Roboto, sans-serif" font-weight="700" font-size="18" fill="#F8A13A">Подключить за 5 минут  →</text><text x="1536" y="177" text-anchor="end" font-family="'DM Sans', -apple-system, 'Segoe UI', Roboto, sans-serif" font-weight="600" font-size="14" fill="rgba(255,255,255,0.6)">@easypay_onboarding_bot</text></svg>