<svg xmlns="http://www.w3.org/2000/svg" viewBox="0 0 1600 900" width="1600" height="900"><defs><linearGradient id="bg" gradientTransform="rotate(105)"><stop offset="0%" stop-color="#0A3039"/><stop offset="35%" stop-color="#0B4B45"/><stop offset="100%" stop-color="#00897B"/></linearGradient><radialGradient id="glowT" cx="50%" cy="50%" r="50%"><stop offset="0" stop-color="#26A69A" stop-opacity="0.45"/><stop offset="1" stop-color="#26A69A" stop-opacity="0"/></radialGradient></defs><rect width="1600" height="900" fill="url(#bg)"/><circle cx="1280" cy="90" r="800" fill="url(#glowT)"/><circle cx="64" cy="882" r="640" fill="url(#glowT)"/><g transform="translate(90,90) scale(0.4)"><g transform="translate(0,190) scale(0.1,-0.1)" fill="#FFFFFF"><path d="M895 1800 c-37 -15 -64 -55 -81 -120 -34 -137 -110 -235 -306 -398 -179 -147 -258 -288 -258 -457 0 -139 44 -241 139 -328 93 -83 208 -127 331 -127 86 0 152 23 202 70 34 33 39 43 36 77 l-3 38 -110 -3 c-133 -5 -197 15 -272 82 -70 63 -93 115 -93 212 0 155 70 248 303 406 84 56 174 124 200 150 98 98 132 229 86 326 -31 64 -113 98 -174 72z"/><path d="M1236 1485 c-17 -9 -54 -43 -84 -75 -51 -57 -144 -124 -325 -235 -92 -56 -175 -134 -202 -190 -15 -29 -20 -61 -20 -117 0 -69 3 -81 30 -120 41 -57 112 -104 183 -119 112 -23 135 -31 158 -54 33 -33 33 -99 0 -144 -46 -61 -93 -88 -287 -160 -64 -24 -101 -59 -101 -95 -1 -112 246 -115 478 -7 215 101 344 236 380 398 48 219 -64 417 -263 463 -90 21 -200 -15 -261 -85 -53 -60 -46 -72 51 -77 96 -5 145 -27 200 -87 63 -70 86 -214 52 -328 -16 -52 -89 -173 -106 -173 -5 0 4 18 20 40 39 54 66 155 57 217 -18 132 -84 191 -279 249 -68 20 -97 51 -97 102 0 76 50 121 225 202 206 96 258 124 311 173 64 58 82 102 65 159 -21 69 -113 100 -185 63z"/></g></g><text x="187.2" y="149.2" font-family="'DM Sans', -apple-system, 'Segoe UI', Roboto, sans-serif" font-weight="700" font-size="56.2" letter-spacing="-1.1" fill="#FFFFFF">EasyPay</text><rect x="901.0" y="92" width="609" height="72" rx="36.0" fill="#FFFFFF"/><text x="1205.5" y="138.2" text-anchor="middle" font-family="'DM Sans', -apple-system, 'Segoe UI', Roboto, sans-serif" font-weight="700" font-size="30" fill="#0B3B45">Connect in 5 minutes on Telegram</text><text x="1510" y="201" text-anchor="end" font-family="'DM Sans', -apple-system, 'Segoe UI', Roboto, sans-serif" font-weight="500" font-size="27" fill="rgba(255,255,255,0.78)">@easypay_onboarding_bot</text><text x="90" y="462" font-family="'DM Serif Display', Georgia, serif" font-size="76" fill="#FFFFFF">Accept payments from any country —</text><text x="90" y="545" font-family="'DM Serif Display', Georgia, serif" font-size="76" fill="#FFFFFF">without your own entity</text><text x="90" y="621" font-family="'DM Sans', -apple-system, 'Segoe UI', Roboto, sans-serif" font-weight="500" font-size="28" fill="rgba(255,255,255,0.85)">US payment infrastructure</text></svg>